<svg xmlns="http://www.w3.org/2000/svg" viewBox="0 -1 100 50">
    <path
        d="M7.579 10.123h14.204c4.169.035 7.19 1.237 9.063 3.604 1.873 2.367 2.491 5.6 1.855 9.699-.247 1.873-.795 3.71-1.643 5.512a16.385 16.385 0 01-3.392 4.876c-1.767 1.837-3.657 3.003-5.671 3.498a26.11 26.11 0 01-6.254.742h-6.36l-2.014 10.07H0l7.579-38.001m6.201 6.042l-3.18 15.9c.212.035.424.053.636.053h.742c3.392.035 6.219-.3 8.48-1.007 2.261-.742 3.781-3.321 4.558-7.738.636-3.71 0-5.848-1.908-6.413-1.873-.565-4.222-.83-7.049-.795-.424.035-.83.053-1.219.053h-1.113l.053-.053M41.093 0h7.314L46.34 10.123h6.572c3.604.071 6.289.813 8.056 2.226 1.802 1.413 2.332 4.099 1.59 8.056l-3.551 17.649h-7.42L54.979 21.2c.353-1.767.247-3.021-.318-3.763s-1.784-1.113-3.657-1.113l-5.883-.053-4.346 21.783h-7.314L41.093 0M70.412 10.123h14.204c4.169.035 7.19 1.237 9.063 3.604 1.873 2.367 2.491 5.6 1.855 9.699-.247 1.873-.795 3.71-1.643 5.512a16.385 16.385 0 01-3.392 4.876c-1.767 1.837-3.657 3.003-5.671 3.498a26.11 26.11 0 01-6.254.742h-6.36L70.2 48.124h-7.367l7.579-38.001m6.201 6.042l-3.18 15.9c.212.035.424.053.636.053h.742c3.392.035 6.219-.3 8.48-1.007 2.261-.742 3.781-3.321 4.558-7.738.636-3.71 0-5.848-1.908-6.413-1.873-.565-4.222-.83-7.049-.795-.424.035-.83.053-1.219.053H76.56l.053-.053" />
</svg><svg class="w-6 h-6 text-gray-800 dark:text-white" aria-hidden="true" xmlns="http://www.w3.org/2000/svg"
    width="24" height="24" fill="currentColor" viewBox="0 0 24 24">
    <path fill-rule="evenodd"
        d="M12.006 2a9.847 9.847 0 0 0-6.484 2.44 10.32 10.32 0 0 0-3.393 6.17 10.48 10.48 0 0 0 1.317 6.955 10.045 10.045 0 0 0 5.4 4.418c.504.095.683-.223.683-.494 0-.245-.01-1.052-.014-1.908-2.78.62-3.366-1.21-3.366-1.21a2.711 2.711 0 0 0-1.11-1.5c-.907-.637.07-.621.07-.621.317.044.62.163.885.346.266.183.487.426.647.71.135.253.318.476.538.655a2.079 2.079 0 0 0 2.37.196c.045-.52.27-1.006.635-1.37-2.219-.259-4.554-1.138-4.554-5.07a4.022 4.022 0 0 1 1.031-2.75 3.77 3.77 0 0 1 .096-2.713s.839-.275 2.749 1.05a9.26 9.26 0 0 1 5.004 0c1.906-1.325 2.74-1.05 2.74-1.05.37.858.406 1.828.101 2.713a4.017 4.017 0 0 1 1.029 2.75c0 3.939-2.339 4.805-4.564 5.058a2.471 2.471 0 0 1 .679 1.897c0 1.372-.012 2.477-.012 2.814 0 .272.18.592.687.492a10.05 10.05 0 0 0 5.388-4.421 10.473 10.473 0 0 0 1.313-6.948 10.32 10.32 0 0 0-3.39-6.165A9.847 9.847 0 0 0 12.007 2Z"
        clip-rule="evenodd" />
</svg>
<svg class="w-6 h-6 text-gray-800 dark:text-white" aria-hidden="true" xmlns="http://www.w3.org/2000/svg" width="24"
    height="24" fill="currentColor" viewBox="0 0 24 24">
    <path fill-rule="evenodd"
        d="M12.006 2a9.847 9.847 0 0 0-6.484 2.44 10.32 10.32 0 0 0-3.393 6.17 10.48 10.48 0 0 0 1.317 6.955 10.045 10.045 0 0 0 5.4 4.418c.504.095.683-.223.683-.494 0-.245-.01-1.052-.014-1.908-2.78.62-3.366-1.21-3.366-1.21a2.711 2.711 0 0 0-1.11-1.5c-.907-.637.07-.621.07-.621.317.044.62.163.885.346.266.183.487.426.647.71.135.253.318.476.538.655a2.079 2.079 0 0 0 2.37.196c.045-.52.27-1.006.635-1.37-2.219-.259-4.554-1.138-4.554-5.07a4.022 4.022 0 0 1 1.031-2.75 3.77 3.77 0 0 1 .096-2.713s.839-.275 2.749 1.05a9.26 9.26 0 0 1 5.004 0c1.906-1.325 2.74-1.05 2.74-1.05.37.858.406 1.828.101 2.713a4.017 4.017 0 0 1 1.029 2.75c0 3.939-2.339 4.805-4.564 5.058a2.471 2.471 0 0 1 .679 1.897c0 1.372-.012 2.477-.012 2.814 0 .272.18.592.687.492a10.05 10.05 0 0 0 5.388-4.421 10.473 10.473 0 0 0 1.313-6.948 10.32 10.32 0 0 0-3.39-6.165A9.847 9.847 0 0 0 12.007 2Z"
        clip-rule="evenodd" />
</svg>
<svg class="w-6 h-6 text-gray-800 dark:text-white" aria-hidden="true" xmlns="http://www.w3.org/2000/svg" width="24"
    height="24" fill="currentColor" viewBox="0 0 24 24">
    <path fill-rule="evenodd"
        d="M12.006 2a9.847 9.847 0 0 0-6.484 2.44 10.32 10.32 0 0 0-3.393 6.17 10.48 10.48 0 0 0 1.317 6.955 10.045 10.045 0 0 0 5.4 4.418c.504.095.683-.223.683-.494 0-.245-.01-1.052-.014-1.908-2.78.62-3.366-1.21-3.366-1.21a2.711 2.711 0 0 0-1.11-1.5c-.907-.637.07-.621.07-.621.317.044.62.163.885.346.266.183.487.426.647.71.135.253.318.476.538.655a2.079 2.079 0 0 0 2.37.196c.045-.52.27-1.006.635-1.37-2.219-.259-4.554-1.138-4.554-5.07a4.022 4.022 0 0 1 1.031-2.75 3.77 3.77 0 0 1 .096-2.713s.839-.275 2.749 1.05a9.26 9.26 0 0 1 5.004 0c1.906-1.325 2.74-1.05 2.74-1.05.37.858.406 1.828.101 2.713a4.017 4.017 0 0 1 1.029 2.75c0 3.939-2.339 4.805-4.564 5.058a2.471 2.471 0 0 1 .679 1.897c0 1.372-.012 2.477-.012 2.814 0 .272.18.592.687.492a10.05 10.05 0 0 0 5.388-4.421 10.473 10.473 0 0 0 1.313-6.948 10.32 10.32 0 0 0-3.39-6.165A9.847 9.847 0 0 0 12.007 2Z"
        clip-rule="evenodd" />
</svg>
<svg class="w-6 h-6 text-gray-800 dark:text-white" aria-hidden="true" xmlns="http://www.w3.org/2000/svg" width="24"
    height="24" fill="currentColor" viewBox="0 0 24 24">
    <path fill-rule="evenodd"
        d="M12.006 2a9.847 9.847 0 0 0-6.484 2.44 10.32 10.32 0 0 0-3.393 6.17 10.48 10.48 0 0 0 1.317 6.955 10.045 10.045 0 0 0 5.4 4.418c.504.095.683-.223.683-.494 0-.245-.01-1.052-.014-1.908-2.78.62-3.366-1.21-3.366-1.21a2.711 2.711 0 0 0-1.11-1.5c-.907-.637.07-.621.07-.621.317.044.62.163.885.346.266.183.487.426.647.71.135.253.318.476.538.655a2.079 2.079 0 0 0 2.37.196c.045-.52.27-1.006.635-1.37-2.219-.259-4.554-1.138-4.554-5.07a4.022 4.022 0 0 1 1.031-2.75 3.77 3.77 0 0 1 .096-2.713s.839-.275 2.749 1.05a9.26 9.26 0 0 1 5.004 0c1.906-1.325 2.74-1.05 2.74-1.05.37.858.406 1.828.101 2.713a4.017 4.017 0 0 1 1.029 2.75c0 3.939-2.339 4.805-4.564 5.058a2.471 2.471 0 0 1 .679 1.897c0 1.372-.012 2.477-.012 2.814 0 .272.18.592.687.492a10.05 10.05 0 0 0 5.388-4.421 10.473 10.473 0 0 0 1.313-6.948 10.32 10.32 0 0 0-3.39-6.165A9.847 9.847 0 0 0 12.007 2Z"
        clip-rule="evenodd" />
</svg>
<svg class="w-6 h-6 text-gray-800 dark:text-white" aria-hidden="true" xmlns="http://www.w3.org/2000/svg" width="24"
    height="24" fill="currentColor" viewBox="0 0 24 24">
    <path fill-rule="evenodd"
        d="M12.006 2a9.847 9.847 0 0 0-6.484 2.44 10.32 10.32 0 0 0-3.393 6.17 10.48 10.48 0 0 0 1.317 6.955 10.045 10.045 0 0 0 5.4 4.418c.504.095.683-.223.683-.494 0-.245-.01-1.052-.014-1.908-2.78.62-3.366-1.21-3.366-1.21a2.711 2.711 0 0 0-1.11-1.5c-.907-.637.07-.621.07-.621.317.044.62.163.885.346.266.183.487.426.647.71.135.253.318.476.538.655a2.079 2.079 0 0 0 2.37.196c.045-.52.27-1.006.635-1.37-2.219-.259-4.554-1.138-4.554-5.07a4.022 4.022 0 0 1 1.031-2.75 3.77 3.77 0 0 1 .096-2.713s.839-.275 2.749 1.05a9.26 9.26 0 0 1 5.004 0c1.906-1.325 2.74-1.05 2.74-1.05.37.858.406 1.828.101 2.713a4.017 4.017 0 0 1 1.029 2.75c0 3.939-2.339 4.805-4.564 5.058a2.471 2.471 0 0 1 .679 1.897c0 1.372-.012 2.477-.012 2.814 0 .272.18.592.687.492a10.05 10.05 0 0 0 5.388-4.421 10.473 10.473 0 0 0 1.313-6.948 10.32 10.32 0 0 0-3.39-6.165A9.847 9.847 0 0 0 12.007 2Z"
        clip-rule="evenodd" />
</svg>